<svg width="742" height="624" viewBox="0 0 742 624" fill="none" xmlns="http://www.w3.org/2000/svg">
<g clip-path="url(#clip0_35_2005)">
<path d="M7.59573 578.5L735.947 576.215L684.866 567.427L186.964 569.165L7.59573 578.5Z" fill="#F2F2F2"/>
<path d="M726.164 450.348H196.767C194.137 450.338 191.617 449.294 189.75 447.442C187.883 445.589 186.819 443.077 186.789 440.447V80.7932C186.819 78.1632 187.883 75.6508 189.75 73.7983C191.617 71.9458 194.137 70.9018 196.767 70.8918H726.164C728.794 70.9018 731.314 71.9458 733.181 73.7983C735.048 75.6508 736.111 78.1632 736.142 80.7932V440.447C736.127 443.082 735.068 445.603 733.198 447.459C731.328 449.314 728.799 450.353 726.164 450.348Z" fill="white" stroke="#C8CCCA" stroke-width="2" stroke-miterlimit="10"/>
<path d="M326.324 285.266H486.186V289.856H326.324V285.266Z" fill="#CACAD8"/>
<path d="M497.726 289.856H332.885C332.583 289.858 332.284 289.801 332.004 289.687C331.725 289.574 331.471 289.406 331.257 289.193C331.042 288.981 330.872 288.728 330.756 288.45C330.64 288.171 330.581 287.872 330.581 287.571C330.581 287.269 330.64 286.97 330.756 286.692C330.872 286.413 331.042 286.16 331.257 285.948C331.471 285.735 331.725 285.568 332.004 285.454C332.284 285.34 332.583 285.283 332.885 285.286H497.726C498.027 285.283 498.327 285.34 498.606 285.454C498.885 285.568 499.14 285.735 499.354 285.948C499.568 286.16 499.738 286.413 499.854 286.692C499.97 286.97 500.03 287.269 500.03 287.571C500.03 287.872 499.97 288.171 499.854 288.45C499.738 288.728 499.568 288.981 499.354 289.193C499.14 289.406 498.885 289.574 498.606 289.687C498.327 289.801 498.027 289.858 497.726 289.856Z" fill="#E4E4ED"/>
<path d="M67.7563 211.25H78.9449V213.359H67.7563V211.25Z" fill="#F9C010"/>
<path d="M72.3059 206.719H74.4343V217.812H72.3059V206.719Z" fill="#F9C010"/>
<path d="M47.5075 137.214L62.5428 152.115L59.731 154.907L44.6957 140.006L47.5075 137.214Z" fill="#2091E5"/>
<path d="M44.7153 152.134L59.731 137.233L62.5428 140.006L47.5271 154.907L44.7153 152.134Z" fill="#2091E5"/>
<path d="M262.668 416.992L275.673 429.881L273.251 432.284L260.247 419.394L262.668 416.992Z" fill="#2091E5"/>
<path d="M260.247 429.901L273.251 417.012L275.673 419.394L262.668 432.284L260.247 429.901Z" fill="#2091E5"/>
<path d="M215.512 42.9647C213.435 42.984 211.409 43.6177 209.692 44.786C207.974 45.9543 206.64 47.6049 205.858 49.53C205.077 51.4551 204.882 53.5684 205.299 55.6038C205.716 57.6393 206.726 59.5058 208.202 60.9681C209.678 62.4305 211.553 63.4234 213.592 63.8217C215.631 64.22 217.742 64.006 219.659 63.2065C221.577 62.4069 223.215 61.0578 224.367 59.3289C225.519 57.6 226.134 55.5688 226.134 53.4911C226.119 50.6871 224.992 48.0039 223 46.0304C221.009 44.0569 218.315 42.9543 215.512 42.9647ZM215.512 60.3654C214.155 60.3538 212.832 59.9409 211.709 59.1785C210.587 58.4161 209.715 57.3385 209.204 56.0814C208.693 54.8243 208.565 53.444 208.837 52.1144C209.108 50.7848 209.768 49.5654 210.731 48.6098C211.695 47.6543 212.919 47.0054 214.251 46.7448C215.583 46.4843 216.962 46.6238 218.214 47.1458C219.467 47.6678 220.537 48.5489 221.289 49.678C222.042 50.8072 222.444 52.1339 222.444 53.4911C222.423 55.318 221.685 57.0635 220.387 58.3499C219.09 59.6364 217.339 60.3604 215.512 60.3654Z" fill="#FF8004"/>
<path d="M425.283 210.976H446.528V214.921H425.283V210.976Z" fill="#2091E5"/>
<path d="M433.894 202.461H437.858V223.534H433.894V202.461Z" fill="#2091E5"/>
<path d="M257.943 322.919H401.734C402.972 322.919 404.159 322.427 405.034 321.552C405.91 320.676 406.401 319.489 406.401 318.251C406.401 317.013 405.91 315.826 405.034 314.951C404.159 314.076 402.972 313.584 401.734 313.584H257.943C256.701 313.584 255.51 314.074 254.629 314.948C253.747 315.823 253.247 317.01 253.237 318.251C253.262 319.488 253.767 320.666 254.645 321.538C255.524 322.409 256.706 322.904 257.943 322.919Z" fill="#CACAD8"/>
<path d="M256.361 350.592H337.59C338.332 350.592 338.879 349.576 338.879 348.307C338.879 347.038 338.332 346.022 337.59 346.022H256.361C255.619 346.022 255.072 347.038 255.072 348.307C255.072 349.576 255.795 350.592 256.361 350.592Z" fill="#CACAD8"/>
<path d="M256.361 372.563H380.763C381.505 372.563 382.052 371.547 382.052 370.278C382.052 369.008 381.505 367.993 380.763 367.993H256.361C255.619 367.993 255.072 369.008 255.072 370.278C255.072 371.547 255.795 372.563 256.361 372.563Z" fill="#CACAD8"/>
<path d="M259.7 158.032H403.492C404.73 158.032 405.917 157.54 406.792 156.665C407.667 155.79 408.159 154.602 408.159 153.364C408.159 152.127 407.667 150.939 406.792 150.064C405.917 149.189 404.73 148.697 403.492 148.697H259.7C258.459 148.697 257.268 149.187 256.386 150.062C255.505 150.936 255.004 152.123 254.994 153.364C255.019 154.601 255.525 155.78 256.403 156.651C257.281 157.522 258.463 158.017 259.7 158.032Z" fill="#CACAD8"/>
<path d="M258.216 173.812H339.445C340.187 173.812 340.734 172.796 340.734 171.527C340.734 170.257 340.187 169.242 339.445 169.242H258.216C257.474 169.242 256.927 170.257 256.927 171.527C256.927 172.796 257.572 173.812 258.216 173.812Z" fill="#CACAD8"/>
<path d="M258.216 197.599H382.716C383.458 197.599 384.005 196.583 384.005 195.314C384.005 194.044 383.458 193.029 382.716 193.029H258.216C257.474 193.029 256.927 194.044 256.927 195.314C256.927 196.583 257.572 197.599 258.216 197.599Z" fill="#CACAD8"/>
<path d="M256.634 220.507H315.506C315.877 220.507 316.151 219.491 316.151 218.222C316.151 216.952 315.877 215.937 315.506 215.937H256.634C256.263 215.937 255.99 216.952 255.99 218.222C255.99 219.491 256.361 220.507 256.634 220.507Z" fill="#CACAD8"/>
<path d="M526.566 231.033C558.918 231.033 585.145 205.029 585.145 172.952C585.145 140.876 558.918 114.872 526.566 114.872C494.214 114.872 467.987 140.876 467.987 172.952C467.987 205.029 494.214 231.033 526.566 231.033Z" fill="#CACAD8"/>
<path d="M526.469 228.924C557.602 228.924 582.841 203.908 582.841 173.05C582.841 142.192 557.602 117.176 526.469 117.176C495.335 117.176 470.096 142.192 470.096 173.05C470.096 203.908 495.335 228.924 526.469 228.924Z" fill="white"/>
<path d="M573.136 141.53C574.054 141.53 582.099 154.907 582.568 169.554V182.014C582.333 184.875 581.675 187.686 580.615 190.353C578.599 195.255 576.224 200 573.507 204.551C564.174 217.655 548.553 224.608 548.553 224.608L495.968 170.492L527.015 172.054C527.015 172.23 566.751 141.53 573.136 141.53Z" fill="#F2F2F2"/>
<path d="M572.59 145.65L529.515 174.046C528.937 174.469 528.217 174.649 527.509 174.546C526.801 174.444 526.161 174.068 525.726 173.499C525.544 173.194 525.426 172.854 525.378 172.501C525.331 172.148 525.355 171.79 525.45 171.447C525.545 171.104 525.708 170.783 525.93 170.505C526.152 170.227 526.428 169.996 526.742 169.828L569.797 141.432C570.375 141.009 571.095 140.83 571.803 140.932C572.511 141.034 573.151 141.41 573.586 141.979C573.917 142.605 573.997 143.334 573.808 144.017C573.619 144.699 573.176 145.284 572.57 145.65" fill="#CACAD8"/>
<path d="M529.417 172.035V172.581C529.408 173.173 529.176 173.74 528.766 174.167C528.357 174.595 527.801 174.851 527.211 174.886H497.179C496.574 174.876 495.997 174.633 495.568 174.207C495.138 173.781 494.89 173.206 494.875 172.601V172.054C494.89 171.449 495.138 170.874 495.568 170.448C495.997 170.022 496.574 169.779 497.179 169.769H527.211C527.799 169.789 528.358 170.036 528.769 170.458C529.18 170.881 529.412 171.445 529.417 172.035Z" fill="#CACAD8"/>
<path d="M477.399 176.077C479.081 176.077 480.445 174.722 480.445 173.05C480.445 171.378 479.081 170.023 477.399 170.023C475.717 170.023 474.353 171.378 474.353 173.05C474.353 174.722 475.717 176.077 477.399 176.077Z" fill="#CACAD8"/>
<path d="M572.765 176.077C574.448 176.077 575.812 174.722 575.812 173.05C575.812 171.378 574.448 170.023 572.765 170.023C571.083 170.023 569.719 171.378 569.719 173.05C569.719 174.722 571.083 176.077 572.765 176.077Z" fill="#CACAD8"/>
<path d="M526.469 127.976C528.151 127.976 529.515 126.621 529.515 124.949C529.515 123.277 528.151 121.922 526.469 121.922C524.786 121.922 523.422 123.277 523.422 124.949C523.422 126.621 524.786 127.976 526.469 127.976Z" fill="#CACAD8"/>
<path d="M526.469 221.151C528.151 221.151 529.515 219.796 529.515 218.124C529.515 216.452 528.151 215.097 526.469 215.097C524.786 215.097 523.422 216.452 523.422 218.124C523.422 219.796 524.786 221.151 526.469 221.151Z" fill="#CACAD8"/>
<path d="M527.113 178.284C530.327 178.284 532.932 175.696 532.932 172.503C532.932 169.311 530.327 166.723 527.113 166.723C523.899 166.723 521.294 169.311 521.294 172.503C521.294 175.696 523.899 178.284 527.113 178.284Z" fill="#CACAD8"/>
<path d="M659.618 335.281V249.078H486.186V359.38H635.328L659.618 335.281Z" fill="white" stroke="#C8CCCA" stroke-miterlimit="10"/>
<path d="M634.957 359.478V335.379H659.267L634.957 359.478Z" fill="#CACAD8"/>
<path d="M660.556 456.207V370.004H487.103V480.306H636.245L660.556 456.207Z" fill="white" stroke="#C8CCCA" stroke-miterlimit="10"/>
<path d="M635.875 480.384V456.305H660.185L635.875 480.384Z" fill="#CACAD8"/>
<path d="M611.018 168.187L623.3 118.622C620.026 117.794 616.688 117.245 613.322 116.981L611.018 168.187Z" fill="#AED8AE"/>
<path d="M608.44 172.035L611.037 116.884C610.295 116.884 609.475 116.884 608.733 116.884C598.888 116.845 589.193 119.305 580.556 124.031L608.44 172.035Z" fill="#FFABAF"/>
<path d="M607.503 175.237L578.213 125.125C569.595 130.255 562.458 137.537 557.502 146.257C552.545 154.977 549.939 164.836 549.939 174.866C549.939 178.062 550.22 181.251 550.779 184.397L607.503 175.237Z" fill="#FEDAAF"/>
<path d="M625.721 119.266L611.174 177.542L609.612 177.171L608.87 177.62V177.444L551.228 186.779C553.254 196.943 557.939 206.388 564.805 214.149C571.672 221.911 580.474 227.712 590.314 230.961C600.153 234.209 610.679 234.79 620.816 232.642C630.953 230.494 640.339 225.695 648.017 218.735C655.694 211.775 661.389 202.903 664.519 193.023C667.649 183.144 668.103 172.61 665.834 162.498C663.566 152.386 658.656 143.056 651.605 135.462C644.555 127.867 635.616 122.278 625.701 119.266H625.721Z" fill="#2091E5"/>
<path d="M598.364 288.469H535.255C534.737 288.469 534.241 288.263 533.875 287.897C533.508 287.531 533.303 287.034 533.303 286.516C533.303 285.998 533.508 285.501 533.875 285.135C534.241 284.769 534.737 284.563 535.255 284.563H598.364C598.882 284.563 599.379 284.769 599.745 285.135C600.111 285.501 600.317 285.998 600.317 286.516C600.317 287.034 600.111 287.531 599.745 287.897C599.379 288.263 598.882 288.469 598.364 288.469Z" fill="#CACAD8"/>
<path d="M590.417 275.013H505.732C505.404 275.016 505.08 274.953 504.777 274.83C504.473 274.707 504.198 274.524 503.965 274.294C503.733 274.063 503.549 273.789 503.423 273.487C503.297 273.184 503.232 272.86 503.232 272.533C503.232 272.206 503.297 271.881 503.423 271.579C503.549 271.277 503.733 271.003 503.965 270.772C504.198 270.542 504.473 270.359 504.777 270.236C505.08 270.112 505.404 270.05 505.732 270.053H590.378C590.705 270.05 591.03 270.112 591.333 270.236C591.636 270.359 591.912 270.542 592.144 270.772C592.377 271.003 592.561 271.277 592.687 271.579C592.813 271.881 592.878 272.206 592.878 272.533C592.849 273.178 592.582 273.79 592.127 274.249C591.672 274.707 591.062 274.98 590.417 275.013Z" fill="#CACAD8"/>
<path d="M604.925 333.367H520.279C519.951 333.37 519.627 333.307 519.324 333.184C519.021 333.06 518.745 332.878 518.513 332.648C518.28 332.417 518.096 332.143 517.97 331.841C517.844 331.538 517.779 331.214 517.779 330.887C517.779 330.559 517.844 330.235 517.97 329.933C518.096 329.631 518.28 329.357 518.513 329.126C518.745 328.896 519.021 328.713 519.324 328.59C519.627 328.466 519.951 328.404 520.279 328.407H604.925C605.253 328.404 605.577 328.466 605.88 328.59C606.183 328.713 606.459 328.896 606.691 329.126C606.924 329.357 607.108 329.631 607.234 329.933C607.36 330.235 607.425 330.559 607.425 330.887C607.396 331.539 607.122 332.156 606.659 332.615C606.196 333.075 605.577 333.343 604.925 333.367Z" fill="#CACAD8"/>
<path d="M576.749 299.288H534.884C534.667 299.291 534.452 299.25 534.251 299.169C534.049 299.088 533.866 298.967 533.712 298.815C533.558 298.662 533.435 298.48 533.351 298.28C533.268 298.08 533.225 297.865 533.225 297.648V296.847C533.225 296.63 533.268 296.415 533.351 296.215C533.435 296.014 533.558 295.833 533.712 295.68C533.866 295.528 534.049 295.407 534.251 295.326C534.452 295.245 534.667 295.204 534.884 295.207H576.749C576.966 295.204 577.181 295.245 577.382 295.326C577.584 295.407 577.767 295.528 577.921 295.68C578.076 295.833 578.198 296.014 578.282 296.215C578.365 296.415 578.409 296.63 578.409 296.847V297.589C578.422 297.813 578.389 298.036 578.311 298.246C578.233 298.456 578.112 298.647 577.956 298.807C577.799 298.967 577.611 299.093 577.403 299.176C577.195 299.258 576.972 299.297 576.749 299.288Z" fill="#CACAD8"/>
<path d="M523.305 288.469H518.307C518.221 288.472 518.136 288.457 518.057 288.425C517.977 288.394 517.905 288.347 517.845 288.286C517.784 288.226 517.737 288.154 517.706 288.074C517.674 287.995 517.659 287.91 517.662 287.824V284.993C517.659 284.907 517.674 284.822 517.706 284.743C517.737 284.663 517.784 284.591 517.845 284.531C517.905 284.471 517.977 284.423 518.057 284.392C518.136 284.36 518.221 284.346 518.307 284.348H523.305C523.391 284.346 523.476 284.36 523.555 284.392C523.634 284.423 523.707 284.471 523.767 284.531C523.827 284.591 523.875 284.663 523.906 284.743C523.938 284.822 523.952 284.907 523.95 284.993V287.824C523.952 287.91 523.938 287.995 523.906 288.074C523.875 288.154 523.827 288.226 523.767 288.286C523.707 288.347 523.634 288.394 523.555 288.425C523.476 288.457 523.391 288.472 523.305 288.469Z" fill="#CACAD8"/>
<path d="M523.305 299.191H518.307C518.221 299.193 518.136 299.178 518.057 299.147C517.977 299.116 517.905 299.068 517.845 299.008C517.784 298.947 517.737 298.875 517.706 298.796C517.674 298.716 517.659 298.631 517.662 298.546V295.714C517.659 295.629 517.674 295.544 517.706 295.465C517.737 295.385 517.784 295.313 517.845 295.253C517.905 295.192 517.977 295.145 518.057 295.113C518.136 295.082 518.221 295.067 518.307 295.07H523.305C523.391 295.067 523.476 295.082 523.555 295.113C523.634 295.145 523.707 295.192 523.767 295.253C523.827 295.313 523.875 295.385 523.906 295.465C523.938 295.544 523.952 295.629 523.95 295.714V298.546C523.952 298.631 523.938 298.716 523.906 298.796C523.875 298.875 523.827 298.947 523.767 299.008C523.707 299.068 523.634 299.116 523.555 299.147C523.476 299.178 523.391 299.193 523.305 299.191Z" fill="#CACAD8"/>
<path d="M598.364 310.01H535.255C534.737 310.01 534.241 309.804 533.875 309.438C533.508 309.072 533.303 308.575 533.303 308.057C533.303 307.539 533.508 307.042 533.875 306.676C534.241 306.31 534.737 306.104 535.255 306.104H598.364C598.882 306.104 599.379 306.31 599.745 306.676C600.111 307.042 600.317 307.539 600.317 308.057C600.317 308.575 600.111 309.072 599.745 309.438C599.379 309.804 598.882 310.01 598.364 310.01Z" fill="#CACAD8"/>
<path d="M576.749 320.907H534.884C534.667 320.91 534.452 320.869 534.251 320.788C534.049 320.707 533.866 320.586 533.712 320.434C533.558 320.281 533.435 320.099 533.351 319.899C533.268 319.699 533.225 319.484 533.225 319.267V318.525C533.225 318.308 533.268 318.093 533.351 317.892C533.435 317.692 533.558 317.51 533.712 317.358C533.866 317.205 534.049 317.085 534.251 317.003C534.452 316.922 534.667 316.882 534.884 316.884H576.749C576.966 316.882 577.181 316.922 577.382 317.003C577.584 317.085 577.767 317.205 577.921 317.358C578.076 317.51 578.198 317.692 578.282 317.892C578.365 318.093 578.409 318.308 578.409 318.525V319.267C578.414 319.485 578.375 319.703 578.293 319.906C578.211 320.108 578.089 320.292 577.933 320.446C577.778 320.6 577.592 320.72 577.389 320.799C577.185 320.879 576.967 320.915 576.749 320.907Z" fill="#CACAD8"/>
<path d="M523.305 310.01H518.307C518.221 310.013 518.136 309.998 518.057 309.966C517.977 309.935 517.905 309.888 517.845 309.827C517.784 309.767 517.737 309.695 517.706 309.615C517.674 309.536 517.659 309.451 517.662 309.365V306.612C517.659 306.526 517.674 306.441 517.706 306.362C517.737 306.283 517.784 306.21 517.845 306.15C517.905 306.09 517.977 306.042 518.057 306.011C518.136 305.979 518.221 305.965 518.307 305.967H523.305C523.391 305.965 523.476 305.979 523.555 306.011C523.634 306.042 523.707 306.09 523.767 306.15C523.827 306.21 523.875 306.283 523.906 306.362C523.938 306.441 523.952 306.526 523.95 306.612V309.444C523.935 309.602 523.86 309.749 523.74 309.855C523.62 309.96 523.465 310.016 523.305 310.01Z" fill="#CACAD8"/>
<path d="M523.305 320.81H518.307C518.221 320.812 518.136 320.798 518.057 320.766C517.977 320.735 517.905 320.687 517.845 320.627C517.784 320.567 517.737 320.494 517.706 320.415C517.674 320.336 517.659 320.251 517.662 320.165V317.333C517.659 317.248 517.674 317.163 517.706 317.084C517.737 317.004 517.784 316.932 517.845 316.872C517.905 316.811 517.977 316.764 518.057 316.732C518.136 316.701 518.221 316.686 518.307 316.689H523.305C523.391 316.686 523.476 316.701 523.555 316.732C523.634 316.764 523.707 316.811 523.767 316.872C523.827 316.932 523.875 317.004 523.906 317.084C523.938 317.163 523.952 317.248 523.95 317.333V320.165C523.952 320.251 523.938 320.336 523.906 320.415C523.875 320.494 523.827 320.567 523.767 320.627C523.707 320.687 523.634 320.735 523.555 320.766C523.476 320.798 523.391 320.812 523.305 320.81Z" fill="#CACAD8"/>
<path d="M598.638 429.999H535.529C535.011 429.999 534.514 429.793 534.148 429.427C533.782 429.06 533.576 428.564 533.576 428.046C533.576 427.528 533.782 427.031 534.148 426.665C534.514 426.298 535.011 426.093 535.529 426.093H598.638C599.156 426.093 599.652 426.298 600.019 426.665C600.385 427.031 600.59 427.528 600.59 428.046C600.59 428.564 600.385 429.06 600.019 429.427C599.652 429.793 599.156 429.999 598.638 429.999Z" fill="#CACAD8"/>
<path d="M590.593 399.962H505.946C505.619 399.965 505.294 399.903 504.991 399.779C504.688 399.656 504.413 399.473 504.18 399.243C503.948 399.012 503.763 398.738 503.638 398.436C503.512 398.134 503.447 397.809 503.447 397.482C503.447 397.155 503.512 396.831 503.638 396.528C503.763 396.226 503.948 395.952 504.18 395.721C504.413 395.491 504.688 395.309 504.991 395.185C505.294 395.062 505.619 394.999 505.946 395.002H590.593C590.92 394.999 591.245 395.062 591.548 395.185C591.851 395.309 592.127 395.491 592.359 395.721C592.591 395.952 592.776 396.226 592.902 396.528C593.028 396.831 593.092 397.155 593.092 397.482C593.092 397.809 593.028 398.134 592.902 398.436C592.776 398.738 592.591 399.012 592.359 399.243C592.127 399.473 591.851 399.656 591.548 399.779C591.245 399.903 590.92 399.965 590.593 399.962Z" fill="#CACAD8"/>
<path d="M562.69 410.215H505.946C505.619 410.218 505.294 410.156 504.991 410.032C504.688 409.909 504.413 409.726 504.18 409.496C503.948 409.265 503.763 408.991 503.638 408.689C503.512 408.387 503.447 408.062 503.447 407.735C503.447 407.408 503.512 407.084 503.638 406.781C503.763 406.479 503.948 406.205 504.18 405.974C504.413 405.744 504.688 405.561 504.991 405.438C505.294 405.314 505.619 405.252 505.946 405.255H562.69C563.017 405.252 563.342 405.314 563.645 405.438C563.948 405.561 564.224 405.744 564.456 405.974C564.688 406.205 564.873 406.479 564.999 406.781C565.124 407.084 565.189 407.408 565.189 407.735C565.189 408.062 565.124 408.387 564.999 408.689C564.873 408.991 564.688 409.265 564.456 409.496C564.224 409.726 563.948 409.909 563.645 410.032C563.342 410.156 563.017 410.218 562.69 410.215Z" fill="#CACAD8"/>
<path d="M577.022 440.916H535.158C534.941 440.918 534.725 440.878 534.524 440.796C534.323 440.715 534.14 440.595 533.985 440.442C533.831 440.289 533.708 440.108 533.625 439.907C533.541 439.707 533.498 439.492 533.498 439.275V438.533C533.498 438.316 533.541 438.101 533.625 437.901C533.708 437.7 533.831 437.519 533.985 437.366C534.14 437.213 534.323 437.093 534.524 437.012C534.725 436.93 534.941 436.89 535.158 436.892H577.022C577.239 436.89 577.455 436.93 577.656 437.012C577.857 437.093 578.04 437.213 578.195 437.366C578.349 437.519 578.472 437.7 578.555 437.901C578.639 438.101 578.682 438.316 578.682 438.533V439.275C578.682 439.492 578.639 439.707 578.555 439.907C578.472 440.108 578.349 440.289 578.195 440.442C578.04 440.595 577.857 440.715 577.656 440.796C577.455 440.878 577.239 440.918 577.022 440.916Z" fill="#CACAD8"/>
<path d="M523.598 429.999H518.619C518.534 430.001 518.449 429.986 518.369 429.955C518.29 429.924 518.218 429.876 518.157 429.816C518.097 429.755 518.05 429.683 518.018 429.604C517.987 429.524 517.972 429.439 517.975 429.354V426.522C517.972 426.437 517.987 426.352 518.018 426.273C518.05 426.193 518.097 426.121 518.157 426.061C518.218 426 518.29 425.953 518.369 425.921C518.449 425.89 518.534 425.875 518.619 425.878H523.618C523.703 425.875 523.788 425.89 523.867 425.921C523.947 425.953 524.019 426 524.079 426.061C524.14 426.121 524.187 426.193 524.219 426.273C524.25 426.352 524.265 426.437 524.262 426.522V429.354C524.265 429.441 524.25 429.528 524.217 429.609C524.184 429.69 524.135 429.763 524.073 429.823C524.01 429.884 523.936 429.931 523.854 429.961C523.772 429.991 523.685 430.004 523.598 429.999Z" fill="#CACAD8"/>
<path d="M523.598 440.818H518.619C518.534 440.821 518.449 440.806 518.369 440.774C518.29 440.743 518.218 440.696 518.157 440.635C518.097 440.575 518.05 440.503 518.018 440.423C517.987 440.344 517.972 440.259 517.975 440.173V437.342C517.972 437.256 517.987 437.171 518.018 437.092C518.05 437.012 518.097 436.94 518.157 436.88C518.218 436.819 518.29 436.772 518.369 436.741C518.449 436.709 518.534 436.694 518.619 436.697H523.618C523.703 436.694 523.788 436.709 523.867 436.741C523.947 436.772 524.019 436.819 524.079 436.88C524.14 436.94 524.187 437.012 524.219 437.092C524.25 437.171 524.265 437.256 524.262 437.342V440.173C524.265 440.26 524.25 440.347 524.217 440.428C524.184 440.509 524.135 440.582 524.073 440.643C524.01 440.703 523.936 440.75 523.854 440.78C523.772 440.811 523.685 440.823 523.598 440.818Z" fill="#CACAD8"/>
<path d="M598.638 451.618H535.529C535.011 451.618 534.514 451.412 534.148 451.046C533.782 450.679 533.576 450.183 533.576 449.665C533.576 449.147 533.782 448.65 534.148 448.284C534.514 447.918 535.011 447.712 535.529 447.712H598.638C599.156 447.712 599.652 447.918 600.019 448.284C600.385 448.65 600.59 449.147 600.59 449.665C600.59 450.183 600.385 450.679 600.019 451.046C599.652 451.412 599.156 451.618 598.638 451.618Z" fill="#CACAD8"/>
<path d="M523.598 451.618H518.619C518.534 451.62 518.449 451.606 518.369 451.574C518.29 451.543 518.218 451.495 518.157 451.435C518.097 451.375 518.05 451.302 518.018 451.223C517.987 451.144 517.972 451.059 517.975 450.973V448.141C517.972 448.056 517.987 447.971 518.018 447.892C518.05 447.812 518.097 447.74 518.157 447.68C518.218 447.619 518.29 447.572 518.369 447.54C518.449 447.509 518.534 447.494 518.619 447.497H523.618C523.703 447.494 523.788 447.509 523.867 447.54C523.947 447.572 524.019 447.619 524.079 447.68C524.14 447.74 524.187 447.812 524.219 447.892C524.25 447.971 524.265 448.056 524.262 448.141V450.973C524.265 451.06 524.25 451.147 524.217 451.228C524.184 451.309 524.135 451.382 524.073 451.442C524.01 451.503 523.936 451.55 523.854 451.58C523.772 451.61 523.685 451.623 523.598 451.618Z" fill="#CACAD8"/>
<path d="M647.239 283.626L639.292 277.025L630.973 283.626V248.629H647.239V283.626Z" fill="#F54424"/>
<path d="M645.774 404.259L637.827 397.677L629.509 404.259V369.282H645.774V404.259Z" fill="#F9C010"/>
<path d="M44.11 290.402C33.39 290.402 22.631 290.402 11.8525 290.402C8.16201 290.402 5.46738 289.856 3.90527 287.649V286.36C5.19401 284.075 7.81054 283.333 11.5791 283.333H69.338H72.2474C74.9225 277.474 77.5195 271.615 80.0579 265.932C80.7023 264.565 81.2685 263.178 81.9129 261.811C82.403 260.697 83.2346 259.767 84.2875 259.156C85.3405 258.546 86.5603 258.285 87.7708 258.413C88.9363 258.318 90.1028 258.584 91.1122 259.174C92.1217 259.765 92.9252 260.651 93.4139 261.714C96.5576 268.315 99.6037 274.896 102.747 281.497C102.813 281.769 102.94 282.023 103.118 282.239C103.275 282.444 103.48 282.606 103.715 282.713C103.95 282.819 104.207 282.865 104.464 282.848C104.721 282.83 104.97 282.75 105.188 282.613C105.407 282.476 105.588 282.287 105.715 282.063C109.133 271.166 112.374 260.171 115.791 249.176C119.482 237.185 123.094 225.076 126.784 213.085C127.429 210.879 129.381 209.883 132.33 209.883C135.278 209.883 137.504 211.172 137.778 213.281C138.695 220.331 139.535 227.381 140.277 234.353C141.761 247.262 143.226 260.093 144.71 273.021C145.354 278.607 145.998 284.29 146.662 289.875C146.815 289.831 146.978 289.831 147.131 289.875C147.775 287.668 148.517 285.579 149.083 283.372C152.774 271.283 156.386 259.097 160.077 247.008C160.721 244.899 162.674 243.708 165.622 243.708C168.571 243.708 170.621 244.801 171.265 246.91C174.214 257.163 177.123 267.436 180.052 277.689C180.521 279.427 181.068 281.263 181.614 283.098H242.126C245.914 283.098 246.656 282.649 247.984 284.934C247.984 285.383 247.066 287.219 247.066 287.688C245.504 289.797 245.582 290.168 241.892 290.07C220.823 290.07 199.657 290.07 178.588 290.07C173.784 290.07 172.203 289.25 171.382 286.164C169.625 279.837 167.77 273.607 165.661 267.299C164.822 270.053 163.904 272.709 163.162 275.443C158.905 289.543 154.668 303.663 150.509 317.861C150.424 318.15 150.299 318.426 150.138 318.681C149.298 320.634 147.092 321.708 144.046 321.513C141 321.317 139.105 320.282 138.91 318.329C137.524 305.967 136.137 293.683 134.653 281.224L130.221 243.297C130.164 242.641 129.943 242.009 129.577 241.462C128.288 245.485 127.077 249.527 125.886 253.648C122.567 264.741 119.228 275.716 115.811 286.848C114.927 288.57 113.626 290.043 112.026 291.131C110.426 292.22 108.579 292.889 106.653 293.078H102.318C98.8032 293.078 95.0151 289.406 93.9021 287.219C92.2423 283.743 90.5826 280.169 88.9033 276.693L87.888 274.74C85.9353 278.958 84.1975 282.884 82.4401 286.828C81.2295 289.582 79.765 290.305 75.2349 290.305C64.7102 290.48 54.4394 290.48 44.0904 290.48" fill="#2091E5"/>
<path d="M222.268 289.758H200.555C198.055 289.758 196.22 289.387 195.205 287.922V287.082C196.044 285.52 197.802 285.129 200.379 285.129H239.197H241.15L246.422 273.412C246.793 272.494 247.262 271.576 247.633 270.658C247.966 269.919 248.521 269.302 249.221 268.892C249.921 268.483 250.73 268.301 251.538 268.373C252.318 268.32 253.096 268.501 253.771 268.895C254.446 269.288 254.988 269.875 255.326 270.58C257.454 274.974 259.485 279.466 261.614 283.86L261.887 284.407C261.989 284.544 262.121 284.656 262.274 284.733C262.426 284.809 262.595 284.85 262.766 284.85C262.937 284.85 263.105 284.809 263.258 284.733C263.41 284.656 263.543 284.544 263.644 284.407C265.948 277.083 268.174 269.662 270.381 262.339C272.88 254.273 275.282 246.207 277.781 238.064C278.25 236.599 279.539 235.857 281.569 235.954C283.6 236.052 285.084 236.775 285.26 238.239C285.904 243.004 286.373 247.672 286.92 252.437C287.935 261.05 288.872 269.76 289.868 278.353C290.337 282.102 290.708 285.872 291.157 289.719H291.43C291.899 288.254 292.348 286.789 292.817 285.422C295.316 277.279 297.718 269.115 300.217 260.972C300.487 260.237 301 259.616 301.672 259.215C302.344 258.813 303.133 258.654 303.908 258.765C304.683 258.656 305.472 258.803 306.156 259.183C306.839 259.564 307.38 260.158 307.696 260.874C309.648 267.748 311.601 274.701 313.554 281.575C313.925 282.766 314.296 283.958 314.569 285.149H355.145C357.742 285.149 359.479 285.598 360.319 287.102V288.02C359.206 289.484 357.449 289.856 354.969 289.856C340.832 289.856 326.597 289.856 312.46 289.856C309.219 289.856 308.203 289.309 307.657 287.297C306.446 283.079 305.255 278.86 303.751 274.662L302.092 280.149C299.221 289.68 296.37 299.112 293.598 308.643C293.499 308.81 293.439 308.996 293.422 309.19C292.875 310.557 291.469 311.143 289.36 311.143C287.252 311.143 286.119 310.127 286.041 308.858C285.123 300.616 284.186 292.277 283.171 284.036C282.155 275.794 281.218 267.006 280.222 258.472C280.148 258.047 279.989 257.642 279.754 257.28C278.914 260.034 278.094 262.69 277.254 265.424C275.028 272.845 272.724 280.267 270.518 287.688C269.922 288.853 269.043 289.85 267.961 290.587C266.88 291.325 265.63 291.778 264.328 291.906H261.379C260.201 291.736 259.077 291.295 258.098 290.617C257.119 289.94 256.31 289.044 255.736 288C254.623 285.618 253.51 283.235 252.417 280.95C252.241 280.579 252.046 280.208 251.675 279.583L247.984 287.473C247.145 289.309 246.227 289.758 243.083 289.758H222.19" fill="#2091E5"/>
<path d="M162.107 613.224L280.378 612.852L280.3 604.064L191.221 604.338L162.107 613.224Z" fill="#F2F2F2"/>
<path d="M230.489 460.972L233.535 469.389L234.277 477.65L231.875 477.553L230.215 485.716L224.475 482.962L224.299 465.366L230.489 460.972Z" fill="#FFC145"/>
<path d="M206.745 416.269L223.733 473.159L232.519 463.902L219.222 410.957L231.035 367.075L216.625 369.828L206.745 416.269Z" fill="#00248B"/>
<path d="M342.57 303.682L357.644 287.473L362.272 284.817L361.979 288.117L361.334 297.452L356.531 300.558L355.789 304.874L346.182 308.623L342.57 303.682Z" fill="#FFC145"/>
<path d="M256.634 580.883L268.936 567.505L275.497 570.728L271.982 592.62L277.059 611.388L270.498 608.185L256.634 580.883Z" fill="black"/>
<path d="M231.133 591.878L232.793 608.185H262.375L236.503 591.429L231.133 591.878Z" fill="black"/>
<path d="M240.467 365.708L252.671 368.09C257.005 367.348 251.108 350.045 250.366 345.729L249.937 339.226C249.195 334.929 238.221 335.828 233.945 336.57L240.33 335.476C239.025 335.732 237.804 336.311 236.781 337.16C235.757 338.01 234.964 339.103 234.472 340.339C235.39 344.636 236.034 366.43 240.467 365.708Z" fill="#FFC145"/>
<path d="M255.346 333.445C253.12 342.507 260.149 343.073 245.914 348.659C239.9 351.041 233.066 343.249 231.582 334.285C230.098 325.321 234.081 317.158 240.447 316.064C246.813 314.97 258.021 322.548 255.346 333.445Z" fill="#FFC145"/>
<path d="M227.716 323.192C227.716 328.68 232.051 341.335 239.08 340.144C243.239 339.499 247.769 332.547 251.558 327.684C251.733 327.411 253.12 330.887 253.315 330.613C255.619 327.508 253.491 323.661 256.556 320.985C260.071 317.783 261.184 308.428 249.078 309.619C246.676 309.893 236.6 309.619 233.457 310.635C226.603 312.666 227.716 313.857 227.716 323.192Z" fill="#00293C"/>
<path d="M237.596 446.501L234.823 462.984L232.617 532.43L230.586 602.053L244.255 593.538L248.961 536.453L249.527 529.228L265.597 469.858L250.816 458.492V442.185L237.596 446.501Z" fill="#2E9DFF"/>
<path d="M254.155 438.982L270.498 429.178L302.111 502.101L273.466 582.074L258.118 575.942L279.09 505.773L249.156 460.054L245.914 442.185L254.155 438.982Z" fill="#2091E5"/>
<path d="M217.269 369.555L237.42 352.506L277.332 342.058L275.399 402.169L276.239 438.611L267.823 438.435L237.596 446.872L221.897 393.635L217.269 369.555Z" fill="#032E6D"/>
<path d="M277.332 342.058L312.46 331.336L345.713 299.464L351.083 310.732L315.233 342.8L276.415 364.048L277.332 342.058Z" fill="#00378B"/>
</g>
<defs>
<clipPath id="clip0_35_2005">
<rect width="742" height="624" fill="white"/>
</clipPath>
</defs>
</svg>
