<svg width="103" height="103" viewBox="0 0 103 103" fill="none" xmlns="http://www.w3.org/2000/svg">
<path d="M86.0529 43.5263V32.8948C86.0529 30.0751 84.9328 27.3709 82.939 25.3771C80.9452 23.3833 78.241 22.2632 75.4213 22.2632H32.895C30.0753 22.2632 27.3712 23.3833 25.3773 25.3771C23.3835 27.3709 22.2634 30.0751 22.2634 32.8948V75.4211C22.2634 78.2408 23.3835 80.9449 25.3773 82.9387C27.3712 84.9325 30.0753 86.0527 32.895 86.0527H43.5266" stroke="#8FCCFF" stroke-width="2" stroke-linecap="round" stroke-linejoin="round"/>
<path d="M45.4444 37.3793H43.8933C43.8336 37.0478 43.7226 36.7562 43.5602 36.5043C43.3978 36.2524 43.1989 36.0386 42.9636 35.8629C42.7283 35.6873 42.4648 35.5547 42.1731 35.4652C41.8848 35.3757 41.5782 35.331 41.2534 35.331C40.6667 35.331 40.1414 35.4785 39.6774 35.7734C39.2167 36.0684 38.8521 36.5009 38.5836 37.071C38.3185 37.6411 38.1859 38.3371 38.1859 39.1591C38.1859 39.9877 38.3185 40.687 38.5836 41.2571C38.8521 41.8272 39.2183 42.258 39.6824 42.5497C40.1464 42.8414 40.6684 42.9872 41.2484 42.9872C41.5699 42.9872 41.8748 42.9441 42.1632 42.858C42.4548 42.7685 42.7183 42.6375 42.9537 42.4652C43.189 42.2929 43.3878 42.0824 43.5502 41.8338C43.716 41.5819 43.8303 41.2936 43.8933 40.9688L45.4444 40.9737C45.3616 41.4742 45.2008 41.9349 44.9622 42.3558C44.7269 42.7734 44.4236 43.1347 44.0524 43.4396C43.6845 43.7412 43.2636 43.9749 42.7896 44.1406C42.3156 44.3063 41.7986 44.3892 41.2385 44.3892C40.3568 44.3892 39.5713 44.1804 38.8819 43.7628C38.1925 43.3419 37.649 42.7403 37.2512 41.9581C36.8568 41.1759 36.6596 40.2429 36.6596 39.1591C36.6596 38.072 36.8585 37.139 37.2562 36.3601C37.6539 35.5779 38.1975 34.978 38.8869 34.5604C39.5763 34.1394 40.3601 33.929 41.2385 33.929C41.7787 33.929 42.2825 34.0069 42.7498 34.1626C43.2205 34.3151 43.6431 34.5405 44.0176 34.8388C44.3921 35.1338 44.702 35.495 44.9473 35.9226C45.1925 36.3468 45.3583 36.8324 45.4444 37.3793ZM52.8359 36.7429C52.7829 36.2723 52.5642 35.9077 52.1797 35.6491C51.7952 35.3873 51.3113 35.2564 50.728 35.2564C50.3104 35.2564 49.9491 35.3227 49.6442 35.4553C49.3393 35.5845 49.1023 35.7635 48.9332 35.9922C48.7675 36.2176 48.6847 36.4744 48.6847 36.7628C48.6847 37.0047 48.741 37.2135 48.8537 37.3892C48.9697 37.5649 49.1205 37.7124 49.3061 37.8317C49.495 37.9477 49.6972 38.0455 49.9126 38.125C50.1281 38.2012 50.3352 38.2642 50.5341 38.3139L51.5284 38.5724C51.8532 38.652 52.1863 38.7597 52.5277 38.8956C52.8691 39.0315 53.1856 39.2105 53.4773 39.4325C53.7689 39.6546 54.0043 39.9297 54.1832 40.2578C54.3655 40.5859 54.4567 40.9787 54.4567 41.4361C54.4567 42.0128 54.3075 42.5249 54.0092 42.9723C53.7143 43.4197 53.285 43.7727 52.7216 44.0312C52.1615 44.2898 51.4837 44.419 50.6882 44.419C49.9259 44.419 49.2663 44.2981 48.7095 44.0561C48.1527 43.8142 47.7169 43.4711 47.402 43.027C47.0871 42.5795 46.9131 42.0492 46.88 41.4361H48.4212C48.451 41.804 48.5703 42.1106 48.7791 42.3558C48.9912 42.5978 49.2614 42.7784 49.5895 42.8977C49.9209 43.0137 50.2839 43.0717 50.6783 43.0717C51.1125 43.0717 51.4986 43.0038 51.8366 42.8679C52.178 42.7287 52.4465 42.5365 52.642 42.2912C52.8376 42.0426 52.9354 41.7526 52.9354 41.4212C52.9354 41.1196 52.8492 40.8726 52.6768 40.6804C52.5078 40.4882 52.2775 40.3291 51.9858 40.2031C51.6974 40.0772 51.371 39.9661 51.0064 39.87L49.8033 39.5419C48.9879 39.3198 48.3416 38.9934 47.8643 38.5625C47.3904 38.1316 47.1534 37.5616 47.1534 36.8523C47.1534 36.2656 47.3125 35.7536 47.6307 35.3161C47.9489 34.8786 48.3797 34.5388 48.9233 34.2969C49.4669 34.0516 50.08 33.929 50.7628 33.929C51.4522 33.929 52.0604 34.05 52.5874 34.2919C53.1177 34.5339 53.5353 34.867 53.8402 35.2912C54.1451 35.7121 54.3042 36.196 54.3175 36.7429H52.8359ZM57.1824 34.0682L60.0162 42.3608H60.1305L62.9643 34.0682H64.6248L60.9608 44.25H59.1859L55.5218 34.0682H57.1824Z" fill="#8FCCFF"/>
<path d="M1 1V1.05316M22.2632 1V1.05316M43.5263 1V1.05316M64.7895 1V1.05316M1 22.2632V22.3163M1 43.5263V43.5795M1 64.7895V64.8426M54.1579 54.1579L102 70.1053L80.7368 80.7368L70.1053 102L54.1579 54.1579Z" stroke="#8FCCFF" stroke-width="2" stroke-linecap="round" stroke-linejoin="round"/>
</svg>
