<svg width="298" height="70" viewBox="0 0 298 70" fill="none" xmlns="http://www.w3.org/2000/svg">
<path d="M3.22585 34.0001V6.3637H13.5895C15.7126 6.3637 17.4938 6.75953 18.9332 7.5512C20.3816 8.34286 21.4747 9.4314 22.2124 10.8168C22.959 12.1932 23.3324 13.7586 23.3324 15.5128C23.3324 17.2851 22.959 18.8594 22.2124 20.2359C21.4657 21.6123 20.3636 22.6963 18.9062 23.488C17.4489 24.2707 15.6541 24.662 13.522 24.662H6.65341V20.5462H12.8473C14.0888 20.5462 15.1054 20.3303 15.897 19.8985C16.6887 19.4667 17.2734 18.8729 17.6513 18.1172C18.0381 17.3616 18.2315 16.4934 18.2315 15.5128C18.2315 14.5323 18.0381 13.6686 17.6513 12.9219C17.2734 12.1753 16.6842 11.595 15.8835 11.1812C15.0919 10.7583 14.0708 10.5469 12.8203 10.5469H8.23224V34.0001H3.22585ZM27.465 34.0001V13.2728H32.2015V16.7273H32.4174C32.7953 15.5308 33.443 14.6087 34.3606 13.961C35.2872 13.3043 36.3443 12.9759 37.5318 12.9759C37.8017 12.9759 38.103 12.9894 38.4359 13.0164C38.7778 13.0344 39.0611 13.0659 39.286 13.1109V17.6045C39.0791 17.5325 38.7508 17.4695 38.301 17.4155C37.8601 17.3526 37.4328 17.3211 37.019 17.3211C36.1284 17.3211 35.3277 17.5145 34.617 17.9013C33.9153 18.2792 33.362 18.8055 32.9572 19.4802C32.5524 20.1549 32.35 20.9331 32.35 21.8147V34.0001H27.465ZM50.7191 34.4049C48.695 34.4049 46.9407 33.9596 45.4563 33.069C43.9719 32.1783 42.8204 30.9324 42.0018 29.331C41.1921 27.7297 40.7873 25.8585 40.7873 23.7174C40.7873 21.5763 41.1921 19.7006 42.0018 18.0903C42.8204 16.4799 43.9719 15.2295 45.4563 14.3388C46.9407 13.4482 48.695 13.0029 50.7191 13.0029C52.7433 13.0029 54.4975 13.4482 55.9819 14.3388C57.4663 15.2295 58.6133 16.4799 59.4229 18.0903C60.2416 19.7006 60.6509 21.5763 60.6509 23.7174C60.6509 25.8585 60.2416 27.7297 59.4229 29.331C58.6133 30.9324 57.4663 32.1783 55.9819 33.069C54.4975 33.9596 52.7433 34.4049 50.7191 34.4049ZM50.7461 30.4915C51.8436 30.4915 52.7612 30.1902 53.4989 29.5874C54.2366 28.9757 54.7854 28.157 55.1452 27.1315C55.5141 26.1059 55.6985 24.9634 55.6985 23.7039C55.6985 22.4354 55.5141 21.2884 55.1452 20.2628C54.7854 19.2283 54.2366 18.4051 53.4989 17.7934C52.7612 17.1816 51.8436 16.8758 50.7461 16.8758C49.6216 16.8758 48.686 17.1816 47.9393 17.7934C47.2016 18.4051 46.6483 19.2283 46.2795 20.2628C45.9196 21.2884 45.7397 22.4354 45.7397 23.7039C45.7397 24.9634 45.9196 26.1059 46.2795 27.1315C46.6483 28.157 47.2016 28.9757 47.9393 29.5874C48.686 30.1902 49.6216 30.4915 50.7461 30.4915ZM64.7971 13.2728H69.682V35.1876C69.682 36.6809 69.3986 37.9134 68.8319 38.885C68.2651 39.8566 67.4464 40.5808 66.3759 41.0576C65.3053 41.5344 64.0054 41.7728 62.476 41.7728C62.2961 41.7728 62.1297 41.7683 61.9767 41.7593C61.8238 41.7593 61.6574 41.7548 61.4775 41.7458V37.765C61.6124 37.774 61.7338 37.7785 61.8418 37.7785C61.9498 37.7875 62.0622 37.792 62.1792 37.792C63.1148 37.792 63.785 37.5626 64.1898 37.1038C64.5946 36.6539 64.7971 35.9927 64.7971 35.1201V13.2728ZM67.226 10.331C66.4434 10.331 65.7731 10.0746 65.2154 9.56185C64.6666 9.04007 64.3922 8.41483 64.3922 7.68614C64.3922 6.94845 64.6666 6.32321 65.2154 5.81043C65.7731 5.28865 66.4434 5.02776 67.226 5.02776C67.9997 5.02776 68.6609 5.28865 69.2097 5.81043C69.7675 6.32321 70.0463 6.94845 70.0463 7.68614C70.0463 8.41483 69.7675 9.04007 69.2097 9.56185C68.6609 10.0746 67.9997 10.331 67.226 10.331ZM83.8814 34.4049C81.8033 34.4049 80.0085 33.9731 78.4972 33.1094C76.9948 32.2368 75.8388 31.0043 75.0291 29.412C74.2195 27.8107 73.8146 25.926 73.8146 23.7579C73.8146 21.6258 74.2195 19.7546 75.0291 18.1442C75.8478 16.5249 76.9903 15.2654 78.4567 14.3658C79.9231 13.4572 81.6458 13.0029 83.625 13.0029C84.9025 13.0029 86.108 13.2098 87.2415 13.6236C88.384 14.0285 89.3916 14.6582 90.2642 15.5128C91.1458 16.3675 91.8385 17.456 92.3423 18.7785C92.8461 20.0919 93.098 21.6573 93.098 23.4745V24.9724H76.1087V21.6797H88.4155C88.4065 20.7441 88.2041 19.912 87.8082 19.1833C87.4124 18.4456 86.8591 17.8654 86.1484 17.4425C85.4467 17.0197 84.6281 16.8083 83.6925 16.8083C82.6939 16.8083 81.8168 17.0512 81.0611 17.537C80.3054 18.0138 79.7161 18.6435 79.2933 19.4262C78.8795 20.1999 78.6681 21.05 78.6591 21.9766V24.8509C78.6591 26.0564 78.8795 27.091 79.3203 27.9546C79.7611 28.8092 80.3774 29.466 81.169 29.9248C81.9607 30.3746 82.8873 30.5995 83.9489 30.5995C84.6596 30.5995 85.3028 30.5005 85.8786 30.3026C86.4543 30.0957 86.9536 29.7943 87.3764 29.3985C87.7992 29.0027 88.1186 28.5124 88.3345 27.9276L92.8956 28.4404C92.6077 29.6459 92.0589 30.6985 91.2493 31.5981C90.4486 32.4887 89.4231 33.1814 88.1726 33.6762C86.9221 34.162 85.4917 34.4049 83.8814 34.4049ZM106.272 34.4049C104.203 34.4049 102.426 33.9506 100.942 33.042C99.4662 32.1333 98.3282 30.8784 97.5275 29.277C96.7359 27.6667 96.34 25.8135 96.34 23.7174C96.34 21.6123 96.7449 19.7546 97.5545 18.1442C98.3642 16.5249 99.5067 15.2654 100.982 14.3658C102.466 13.4572 104.221 13.0029 106.245 13.0029C107.927 13.0029 109.416 13.3133 110.711 13.934C112.016 14.5458 113.055 15.4139 113.829 16.5384C114.602 17.6539 115.043 18.9584 115.151 20.4518H110.482C110.293 19.4532 109.843 18.621 109.133 17.9553C108.431 17.2806 107.491 16.9432 106.312 16.9432C105.314 16.9432 104.437 17.2131 103.681 17.7529C102.925 18.2837 102.336 19.0484 101.913 20.0469C101.499 21.0455 101.292 22.242 101.292 23.6364C101.292 25.0488 101.499 26.2633 101.913 27.2799C102.327 28.2875 102.907 29.0656 103.654 29.6144C104.41 30.1542 105.296 30.4241 106.312 30.4241C107.032 30.4241 107.675 30.2891 108.242 30.0192C108.818 29.7404 109.299 29.34 109.686 28.8182C110.073 28.2965 110.338 27.6622 110.482 26.9155H115.151C115.034 28.3819 114.602 29.6819 113.856 30.8154C113.109 31.9399 112.092 32.8216 110.806 33.4603C109.519 34.09 108.008 34.4049 106.272 34.4049ZM129.512 13.2728V17.0512H117.597V13.2728H129.512ZM120.539 8.30688H125.424V27.7657C125.424 28.4224 125.523 28.9262 125.721 29.277C125.927 29.6189 126.197 29.8528 126.53 29.9788C126.863 30.1047 127.232 30.1677 127.637 30.1677C127.943 30.1677 128.221 30.1452 128.473 30.1002C128.734 30.0552 128.932 30.0147 129.067 29.9788L129.89 33.7976C129.629 33.8876 129.256 33.9866 128.77 34.0945C128.293 34.2025 127.709 34.2654 127.016 34.2834C125.792 34.3194 124.69 34.135 123.71 33.7302C122.729 33.3163 121.951 32.6776 121.375 31.814C120.809 30.9503 120.53 29.8708 120.539 28.5753V8.30688ZM143.024 41.7728V13.2728H147.828V16.7003H148.111C148.363 16.1966 148.718 15.6613 149.177 15.0945C149.636 14.5188 150.257 14.0285 151.039 13.6236C151.822 13.2098 152.82 13.0029 154.035 13.0029C155.636 13.0029 157.08 13.4122 158.367 14.2309C159.662 15.0405 160.688 16.2415 161.443 17.8339C162.208 19.4172 162.59 21.3604 162.59 23.6634C162.59 25.9395 162.217 27.8736 161.47 29.466C160.724 31.0583 159.707 32.2728 158.421 33.1094C157.134 33.9461 155.677 34.3644 154.048 34.3644C152.861 34.3644 151.876 34.1665 151.093 33.7707C150.311 33.3748 149.681 32.898 149.204 32.3403C148.736 31.7735 148.372 31.2382 148.111 30.7344H147.909V41.7728H143.024ZM147.814 23.6364C147.814 24.9769 148.003 26.1509 148.381 27.1584C148.768 28.166 149.321 28.9532 150.041 29.5199C150.769 30.0777 151.651 30.3566 152.686 30.3566C153.765 30.3566 154.669 30.0687 155.398 29.493C156.127 28.9082 156.675 28.112 157.044 27.1045C157.422 26.0879 157.611 24.9319 157.611 23.6364C157.611 22.35 157.427 21.2074 157.058 20.2089C156.689 19.2103 156.14 18.4276 155.411 17.8609C154.683 17.2941 153.774 17.0107 152.686 17.0107C151.642 17.0107 150.756 17.2851 150.027 17.8339C149.298 18.3826 148.745 19.1518 148.367 20.1414C147.999 21.131 147.814 22.296 147.814 23.6364ZM179.985 25.2827V13.2728H184.869V34.0001H180.133V30.3161H179.917C179.449 31.4766 178.68 32.4257 177.61 33.1634C176.548 33.9011 175.239 34.2699 173.683 34.2699C172.324 34.2699 171.123 33.9686 170.08 33.3658C169.045 32.7541 168.235 31.868 167.651 30.7074C167.066 29.5379 166.774 28.1255 166.774 26.4702V13.2728H171.659V25.7145C171.659 27.028 172.018 28.0716 172.738 28.8452C173.458 29.6189 174.402 30.0057 175.572 30.0057C176.292 30.0057 176.989 29.8303 177.664 29.4795C178.338 29.1286 178.892 28.6068 179.323 27.9141C179.764 27.2124 179.985 26.3353 179.985 25.2827ZM194.778 6.3637V34.0001H189.893V6.3637H194.778ZM216.183 18.7515L211.73 19.2373C211.604 18.7875 211.384 18.3646 211.069 17.9688C210.763 17.573 210.349 17.2536 209.827 17.0107C209.305 16.7678 208.667 16.6464 207.911 16.6464C206.894 16.6464 206.04 16.8668 205.347 17.3076C204.663 17.7484 204.326 18.3197 204.335 19.0214C204.326 19.6241 204.546 20.1144 204.996 20.4922C205.455 20.8701 206.211 21.1805 207.263 21.4234L210.799 22.179C212.76 22.6019 214.217 23.2721 215.171 24.1897C216.134 25.1073 216.619 26.3083 216.628 27.7927C216.619 29.0971 216.237 30.2486 215.481 31.2472C214.735 32.2368 213.696 33.0105 212.364 33.5682C211.033 34.126 209.503 34.4049 207.776 34.4049C205.239 34.4049 203.197 33.8741 201.65 32.8126C200.102 31.742 199.18 30.2531 198.883 28.3459L203.647 27.8871C203.863 28.8227 204.322 29.5289 205.023 30.0057C205.725 30.4825 206.638 30.7209 207.763 30.7209C208.923 30.7209 209.854 30.4825 210.556 30.0057C211.267 29.5289 211.622 28.9397 211.622 28.238C211.622 27.6442 211.393 27.1539 210.934 26.7671C210.484 26.3803 209.782 26.0834 208.829 25.8765L205.293 25.1343C203.305 24.7205 201.834 24.0233 200.881 23.0427C199.927 22.0531 199.455 20.8026 199.464 19.2913C199.455 18.0138 199.801 16.9073 200.503 15.9717C201.213 15.027 202.198 14.2984 203.458 13.7856C204.726 13.2638 206.188 13.0029 207.844 13.0029C210.273 13.0029 212.184 13.5202 213.579 14.5547C214.982 15.5893 215.85 16.9882 216.183 18.7515ZM229.833 34.4049C227.754 34.4049 225.96 33.9731 224.448 33.1094C222.946 32.2368 221.79 31.0043 220.98 29.412C220.171 27.8107 219.766 25.926 219.766 23.7579C219.766 21.6258 220.171 19.7546 220.98 18.1442C221.799 16.5249 222.941 15.2654 224.408 14.3658C225.874 13.4572 227.597 13.0029 229.576 13.0029C230.854 13.0029 232.059 13.2098 233.193 13.6236C234.335 14.0285 235.343 14.6582 236.215 15.5128C237.097 16.3675 237.79 17.456 238.294 18.7785C238.797 20.0919 239.049 21.6573 239.049 23.4745V24.9724H222.06V21.6797H234.367C234.358 20.7441 234.155 19.912 233.759 19.1833C233.364 18.4456 232.81 17.8654 232.1 17.4425C231.398 17.0197 230.579 16.8083 229.644 16.8083C228.645 16.8083 227.768 17.0512 227.012 17.537C226.257 18.0138 225.667 18.6435 225.244 19.4262C224.831 20.1999 224.619 21.05 224.61 21.9766V24.8509C224.61 26.0564 224.831 27.091 225.271 27.9546C225.712 28.8092 226.329 29.466 227.12 29.9248C227.912 30.3746 228.838 30.5995 229.9 30.5995C230.611 30.5995 231.254 30.5005 231.83 30.3026C232.405 30.0957 232.905 29.7943 233.328 29.3985C233.75 29.0027 234.07 28.5124 234.286 27.9276L238.847 28.4404C238.559 29.6459 238.01 30.6985 237.2 31.5981C236.4 32.4887 235.374 33.1814 234.124 33.6762C232.873 34.162 231.443 34.4049 229.833 34.4049Z" fill="#2091E5"/>
<path d="M233.329 26.068C229.947 26.0908 226.553 26.1137 223.153 26.1366C221.989 26.1445 221.138 26.0033 220.641 25.4137L220.639 25.0673C221.041 24.4507 221.865 24.2457 223.054 24.2377L241.275 24.1148L242.193 24.1087C243.026 22.5288 243.835 20.9491 244.625 19.4168C244.826 19.0481 245.002 18.6743 245.203 18.3056C245.355 18.0052 245.616 17.7536 245.947 17.5873C246.278 17.4209 246.662 17.3484 247.045 17.3802C247.412 17.3522 247.78 17.4211 248.1 17.5775C248.42 17.734 248.675 17.9705 248.831 18.2549C249.834 20.0218 250.807 21.7837 251.811 23.5505C251.832 23.6236 251.873 23.6915 251.929 23.7492C251.979 23.8038 252.044 23.8471 252.118 23.8751C252.193 23.9032 252.274 23.9151 252.355 23.9099C252.436 23.9046 252.514 23.8824 252.583 23.8452C252.652 23.8079 252.708 23.7568 252.748 23.6964C253.807 20.7612 254.809 17.8001 255.867 14.8386C257.01 11.609 258.127 8.348 259.27 5.11834C259.469 4.52403 260.083 4.25227 261.013 4.246C261.944 4.23973 262.648 4.58131 262.738 5.14743C263.04 7.03973 263.318 8.9322 263.565 10.8039C264.056 14.2692 264.542 17.7135 265.033 21.184C265.247 22.6833 265.46 24.2089 265.68 25.7082C265.728 25.6959 265.779 25.6956 265.827 25.7072C266.027 25.1129 266.257 24.5499 266.432 23.9557C267.574 20.6998 268.692 17.4179 269.834 14.162C270.033 13.5939 270.647 13.2697 271.577 13.2634C272.507 13.2571 273.156 13.5466 273.363 14.1119C274.312 16.8605 275.248 19.6143 276.191 22.3629C276.342 22.8289 276.518 23.321 276.694 23.8131L295.783 23.6844C296.978 23.6763 297.211 23.554 297.634 24.1651C297.635 24.2858 297.349 24.781 297.35 24.9069C296.861 25.477 296.886 25.5765 295.722 25.5581C289.075 25.6029 282.398 25.6479 275.751 25.6928C274.236 25.703 273.736 25.486 273.471 24.6586C272.905 22.9623 272.309 21.2924 271.632 19.602C271.372 20.3436 271.088 21.0592 270.859 21.7954C269.541 25.593 268.23 29.3957 266.944 33.2193C266.918 33.2972 266.879 33.3717 266.828 33.4405C266.567 33.967 265.873 34.2603 264.912 34.2143C263.95 34.1683 263.351 33.8942 263.286 33.3699C262.826 30.0514 262.366 26.7538 261.876 23.4092L260.409 13.2285C260.39 13.0522 260.319 12.883 260.202 12.7366C259.803 13.8203 259.428 14.9091 259.06 16.0188C258.033 19.0063 256.999 21.9623 255.942 24.9605C255.666 25.4251 255.258 25.8235 254.756 26.1194C254.253 26.4153 253.671 26.599 253.064 26.6539L251.696 26.6631C250.588 26.6706 249.386 25.6921 249.031 25.1068C248.501 24.1763 247.971 23.2196 247.435 22.2892L247.111 21.7666C246.503 22.9042 245.962 23.9625 245.414 25.0262C245.037 25.7687 244.577 25.9659 243.148 25.9756C239.828 26.0452 236.588 26.067 233.323 26.089" fill="#2091E5"/>
<path d="M2.62216 64.0001H0.960227L5.76705 50.9092H7.40341L12.2102 64.0001H10.5483L6.63636 52.9802H6.53409L2.62216 64.0001ZM3.2358 58.8864H9.93466V60.2927H3.2358V58.8864ZM23.0703 67.8864C22.3416 67.8864 21.7152 67.7927 21.1911 67.6052C20.6669 67.4219 20.2301 67.179 19.8807 66.8765C19.5355 66.5782 19.2607 66.2586 19.0561 65.9177L20.2578 65.0739C20.3942 65.2529 20.5668 65.4574 20.7756 65.6876C20.9844 65.9219 21.2699 66.1244 21.6321 66.2948C21.9986 66.4695 22.478 66.5569 23.0703 66.5569C23.8629 66.5569 24.517 66.3651 25.0327 65.9816C25.5483 65.5981 25.8061 64.9972 25.8061 64.179V62.1847H25.6783C25.5675 62.3637 25.4098 62.5853 25.2053 62.8495C25.005 63.1094 24.7152 63.3417 24.3359 63.5462C23.9609 63.7465 23.4538 63.8467 22.8146 63.8467C22.022 63.8467 21.3104 63.6592 20.6797 63.2842C20.0533 62.9092 19.5568 62.3637 19.1903 61.6478C18.8281 60.9319 18.647 60.0626 18.647 59.0398C18.647 58.0342 18.8239 57.1584 19.1776 56.4127C19.5313 55.6627 20.0234 55.0832 20.6541 54.6741C21.2848 54.2607 22.0135 54.054 22.8402 54.054C23.4794 54.054 23.9865 54.1606 24.3615 54.3736C24.7408 54.5824 25.0305 54.8211 25.2308 55.0895C25.4354 55.3538 25.593 55.5711 25.7038 55.7415H25.8572V54.1819H27.3146V64.2813C27.3146 65.1251 27.1229 65.8111 26.7393 66.3395C26.3601 66.8722 25.8487 67.2621 25.2053 67.5093C24.5661 67.7607 23.8544 67.8864 23.0703 67.8864ZM23.0192 62.4915C23.6243 62.4915 24.1357 62.353 24.5533 62.0761C24.9709 61.7991 25.2884 61.4006 25.5057 60.8807C25.723 60.3609 25.8317 59.7387 25.8317 59.0143C25.8317 58.3069 25.7251 57.6826 25.5121 57.1414C25.299 56.6002 24.9837 56.1762 24.5661 55.8694C24.1484 55.5626 23.6328 55.4092 23.0192 55.4092C22.38 55.4092 21.8473 55.5711 21.4212 55.8949C20.9993 56.2188 20.6818 56.6535 20.4688 57.1989C20.2599 57.7444 20.1555 58.3495 20.1555 59.0143C20.1555 59.6961 20.2621 60.2991 20.4751 60.8232C20.6925 61.3431 21.0121 61.7522 21.4339 62.0505C21.8601 62.3445 22.3885 62.4915 23.0192 62.4915ZM34.0646 64.2046C33.1783 64.2046 32.4006 63.9937 31.7315 63.5718C31.0668 63.1499 30.5469 62.5597 30.1719 61.8012C29.8011 61.0427 29.6158 60.1563 29.6158 59.1421C29.6158 58.1194 29.8011 57.2266 30.1719 56.4638C30.5469 55.7011 31.0668 55.1087 31.7315 54.6869C32.4006 54.265 33.1783 54.054 34.0646 54.054C34.951 54.054 35.7266 54.265 36.3913 54.6869C37.0604 55.1087 37.5803 55.7011 37.951 56.4638C38.326 57.2266 38.5135 58.1194 38.5135 59.1421C38.5135 60.1563 38.326 61.0427 37.951 61.8012C37.5803 62.5597 37.0604 63.1499 36.3913 63.5718C35.7266 63.9937 34.951 64.2046 34.0646 64.2046ZM34.0646 62.8495C34.7379 62.8495 35.2919 62.6769 35.7266 62.3317C36.1612 61.9866 36.483 61.5327 36.6918 60.9702C36.9006 60.4077 37.005 59.7984 37.005 59.1421C37.005 58.4859 36.9006 57.8744 36.6918 57.3076C36.483 56.7408 36.1612 56.2827 35.7266 55.9333C35.2919 55.5839 34.7379 55.4092 34.0646 55.4092C33.3913 55.4092 32.8374 55.5839 32.4027 55.9333C31.968 56.2827 31.6463 56.7408 31.4375 57.3076C31.2287 57.8744 31.1243 58.4859 31.1243 59.1421C31.1243 59.7984 31.2287 60.4077 31.4375 60.9702C31.6463 61.5327 31.968 61.9866 32.4027 62.3317C32.8374 62.6769 33.3913 62.8495 34.0646 62.8495ZM44.8049 64.2046C43.9185 64.2046 43.1408 63.9937 42.4718 63.5718C41.807 63.1499 41.2871 62.5597 40.9121 61.8012C40.5414 61.0427 40.356 60.1563 40.356 59.1421C40.356 58.1194 40.5414 57.2266 40.9121 56.4638C41.2871 55.7011 41.807 55.1087 42.4718 54.6869C43.1408 54.265 43.9185 54.054 44.8049 54.054C45.6912 54.054 46.4668 54.265 47.1316 54.6869C47.8006 55.1087 48.3205 55.7011 48.6912 56.4638C49.0662 57.2266 49.2537 58.1194 49.2537 59.1421C49.2537 60.1563 49.0662 61.0427 48.6912 61.8012C48.3205 62.5597 47.8006 63.1499 47.1316 63.5718C46.4668 63.9937 45.6912 64.2046 44.8049 64.2046ZM44.8049 62.8495C45.4782 62.8495 46.0321 62.6769 46.4668 62.3317C46.9015 61.9866 47.2232 61.5327 47.432 60.9702C47.6408 60.4077 47.7452 59.7984 47.7452 59.1421C47.7452 58.4859 47.6408 57.8744 47.432 57.3076C47.2232 56.7408 46.9015 56.2827 46.4668 55.9333C46.0321 55.5839 45.4782 55.4092 44.8049 55.4092C44.1316 55.4092 43.5776 55.5839 43.1429 55.9333C42.7083 56.2827 42.3865 56.7408 42.1777 57.3076C41.9689 57.8744 41.8645 58.4859 41.8645 59.1421C41.8645 59.7984 41.9689 60.4077 42.1777 60.9702C42.3865 61.5327 42.7083 61.9866 43.1429 62.3317C43.5776 62.6769 44.1316 62.8495 44.8049 62.8495ZM55.2638 64.2046C54.4457 64.2046 53.7234 63.9979 53.0969 63.5846C52.4705 63.167 51.9805 62.5789 51.6268 61.8204C51.2731 61.0576 51.0962 60.1563 51.0962 59.1165C51.0962 58.0853 51.2731 57.1904 51.6268 56.4319C51.9805 55.6734 52.4727 55.0874 53.1033 54.6741C53.734 54.2607 54.4627 54.054 55.2894 54.054C55.9286 54.054 56.4336 54.1606 56.8043 54.3736C57.1793 54.5824 57.4648 54.8211 57.6609 55.0895C57.8612 55.3538 58.0167 55.5711 58.1275 55.7415H58.2553V50.9092H59.7639V64.0001H58.3065V62.4915H58.1275C58.0167 62.6705 57.859 62.8964 57.6545 63.1691C57.4499 63.4376 57.158 63.6783 56.7788 63.8914C56.3995 64.1002 55.8945 64.2046 55.2638 64.2046ZM55.4684 62.8495C56.0735 62.8495 56.5849 62.6918 57.0025 62.3765C57.4201 62.0569 57.7376 61.6158 57.9549 61.0533C58.1722 60.4866 58.2809 59.8324 58.2809 59.091C58.2809 58.358 58.1744 57.7167 57.9613 57.167C57.7482 56.613 57.4329 56.1826 57.0153 55.8758C56.5977 55.5647 56.082 55.4092 55.4684 55.4092C54.8292 55.4092 54.2965 55.5732 53.8704 55.9013C53.4485 56.2252 53.131 56.6663 52.918 57.2245C52.7092 57.7785 52.6048 58.4006 52.6048 59.091C52.6048 59.7898 52.7113 60.4248 52.9244 60.9958C53.1417 61.5626 53.4613 62.0143 53.8832 62.3509C54.3093 62.6833 54.8377 62.8495 55.4684 62.8495ZM67.7987 64.0001V54.1819H69.256V55.6648H69.3583C69.5373 55.179 69.8612 54.7849 70.3299 54.4823C70.7987 54.1797 71.3271 54.0285 71.9151 54.0285C72.0259 54.0285 72.1644 54.0306 72.3306 54.0349C72.4968 54.0391 72.6225 54.0455 72.7077 54.054V55.5881C72.6566 55.5753 72.5394 55.5562 72.3562 55.5306C72.1772 55.5008 71.9876 55.4859 71.7873 55.4859C71.31 55.4859 70.8839 55.586 70.5089 55.7863C70.1381 55.9823 69.8441 56.255 69.6268 56.6045C69.4137 56.9496 69.3072 57.3438 69.3072 57.787V64.0001H67.7987ZM78.3136 64.2046C77.3675 64.2046 76.5515 63.9958 75.8654 63.5782C75.1836 63.1563 74.6573 62.5682 74.2866 61.814C73.9201 61.0555 73.7369 60.1734 73.7369 59.1677C73.7369 58.162 73.9201 57.2756 74.2866 56.5086C74.6573 55.7373 75.1729 55.1364 75.8335 54.706C76.4982 54.2714 77.2738 54.054 78.1602 54.054C78.6715 54.054 79.1765 54.1393 79.6751 54.3097C80.1737 54.4802 80.6275 54.7572 81.0366 55.1407C81.4457 55.5199 81.7717 56.0228 82.0146 56.6492C82.2575 57.2756 82.3789 58.0469 82.3789 58.9631V59.6023H74.8107V58.2984H80.8448C80.8448 57.7444 80.734 57.2501 80.5124 56.8154C80.2951 56.3807 79.984 56.0377 79.5792 55.7863C79.1786 55.5349 78.7056 55.4092 78.1602 55.4092C77.5593 55.4092 77.0394 55.5583 76.6005 55.8566C76.1658 56.1506 75.8313 56.5342 75.5969 57.0072C75.3626 57.4802 75.2454 57.9873 75.2454 58.5285V59.3978C75.2454 60.1393 75.3732 60.7678 75.6289 61.2834C75.8888 61.7948 76.2489 62.1847 76.7092 62.4532C77.1694 62.7174 77.7042 62.8495 78.3136 62.8495C78.7099 62.8495 79.0678 62.7941 79.3874 62.6833C79.7113 62.5682 79.9904 62.3978 80.2248 62.1719C80.4592 61.9418 80.6403 61.6563 80.7681 61.3154L82.2255 61.7245C82.0721 62.2188 81.8143 62.6535 81.4521 63.0285C81.0898 63.3992 80.6424 63.689 80.1097 63.8978C79.5771 64.1023 78.9783 64.2046 78.3136 64.2046ZM84.6737 67.6819V54.1819H86.131V55.7415H86.31C86.4208 55.5711 86.5742 55.3538 86.7702 55.0895C86.9705 54.8211 87.256 54.5824 87.6268 54.3736C88.0018 54.1606 88.5089 54.054 89.1481 54.054C89.9748 54.054 90.7035 54.2607 91.3342 54.6741C91.9648 55.0874 92.457 55.6734 92.8107 56.4319C93.1644 57.1904 93.3413 58.0853 93.3413 59.1165C93.3413 60.1563 93.1644 61.0576 92.8107 61.8204C92.457 62.5789 91.967 63.167 91.3406 63.5846C90.7141 63.9979 89.9918 64.2046 89.1737 64.2046C88.543 64.2046 88.038 64.1002 87.6587 63.8914C87.2795 63.6783 86.9876 63.4376 86.783 63.1691C86.5785 62.8964 86.4208 62.6705 86.31 62.4915H86.1822V67.6819H84.6737ZM86.1566 59.091C86.1566 59.8324 86.2653 60.4866 86.4826 61.0533C86.6999 61.6158 87.0174 62.0569 87.435 62.3765C87.8526 62.6918 88.364 62.8495 88.9691 62.8495C89.5998 62.8495 90.1261 62.6833 90.5479 62.3509C90.9741 62.0143 91.2937 61.5626 91.5067 60.9958C91.7241 60.4248 91.8327 59.7898 91.8327 59.091C91.8327 58.4006 91.7262 57.7785 91.5131 57.2245C91.3043 56.6663 90.9869 56.2252 90.5607 55.9013C90.1388 55.5732 89.6083 55.4092 88.9691 55.4092C88.3555 55.4092 87.8398 55.5647 87.4222 55.8758C87.0046 56.1826 86.6893 56.613 86.4762 57.167C86.2631 57.7167 86.1566 58.358 86.1566 59.091ZM99.631 64.2046C98.7447 64.2046 97.967 63.9937 97.2979 63.5718C96.6332 63.1499 96.1133 62.5597 95.7383 61.8012C95.3675 61.0427 95.1822 60.1563 95.1822 59.1421C95.1822 58.1194 95.3675 57.2266 95.7383 56.4638C96.1133 55.7011 96.6332 55.1087 97.2979 54.6869C97.967 54.265 98.7447 54.054 99.631 54.054C100.517 54.054 101.293 54.265 101.958 54.6869C102.627 55.1087 103.147 55.7011 103.517 56.4638C103.892 57.2266 104.08 58.1194 104.08 59.1421C104.08 60.1563 103.892 61.0427 103.517 61.8012C103.147 62.5597 102.627 63.1499 101.958 63.5718C101.293 63.9937 100.517 64.2046 99.631 64.2046ZM99.631 62.8495C100.304 62.8495 100.858 62.6769 101.293 62.3317C101.728 61.9866 102.049 61.5327 102.258 60.9702C102.467 60.4077 102.571 59.7984 102.571 59.1421C102.571 58.4859 102.467 57.8744 102.258 57.3076C102.049 56.7408 101.728 56.2827 101.293 55.9333C100.858 55.5839 100.304 55.4092 99.631 55.4092C98.9577 55.4092 98.4038 55.5839 97.9691 55.9333C97.5344 56.2827 97.2127 56.7408 97.0039 57.3076C96.7951 57.8744 96.6907 58.4859 96.6907 59.1421C96.6907 59.7984 96.7951 60.4077 97.0039 60.9702C97.2127 61.5327 97.5344 61.9866 97.9691 62.3317C98.4038 62.6769 98.9577 62.8495 99.631 62.8495ZM106.383 64.0001V54.1819H107.84V55.6648H107.942C108.121 55.179 108.445 54.7849 108.914 54.4823C109.383 54.1797 109.911 54.0285 110.499 54.0285C110.61 54.0285 110.748 54.0306 110.915 54.0349C111.081 54.0391 111.206 54.0455 111.292 54.054V55.5881C111.241 55.5753 111.123 55.5562 110.94 55.5306C110.761 55.5008 110.572 55.4859 110.371 55.4859C109.894 55.4859 109.468 55.586 109.093 55.7863C108.722 55.9823 108.428 56.255 108.211 56.6045C107.998 56.9496 107.891 57.3438 107.891 57.787V64.0001H106.383ZM117.965 54.1819V55.4603H112.877V54.1819H117.965ZM114.36 51.8296H115.868V61.1876C115.868 61.6137 115.93 61.9333 116.054 62.1464C116.182 62.3552 116.344 62.4958 116.54 62.5682C116.74 62.6364 116.951 62.6705 117.172 62.6705C117.339 62.6705 117.475 62.662 117.581 62.6449C117.688 62.6236 117.773 62.6066 117.837 62.5938L118.144 63.9489C118.042 63.9873 117.899 64.0256 117.716 64.064C117.532 64.1066 117.3 64.1279 117.019 64.1279C116.593 64.1279 116.175 64.0363 115.766 63.853C115.361 63.6698 115.025 63.3907 114.756 63.0157C114.492 62.6407 114.36 62.1677 114.36 61.5967V51.8296ZM120.234 64.0001V54.1819H121.743V64.0001H120.234ZM121.001 52.5455C120.707 52.5455 120.454 52.4454 120.241 52.2451C120.032 52.0448 119.927 51.804 119.927 51.5228C119.927 51.2415 120.032 51.0008 120.241 50.8005C120.454 50.6002 120.707 50.5001 121.001 50.5001C121.295 50.5001 121.547 50.6002 121.756 50.8005C121.969 51.0008 122.075 51.2415 122.075 51.5228C122.075 51.804 121.969 52.0448 121.756 52.2451C121.547 52.4454 121.295 52.5455 121.001 52.5455ZM126.014 58.0938V64.0001H124.506V54.1819H125.963V55.716H126.091C126.321 55.2174 126.67 54.8168 127.139 54.5143C127.608 54.2074 128.213 54.054 128.955 54.054C129.619 54.054 130.201 54.1904 130.7 54.4631C131.198 54.7316 131.586 55.1407 131.863 55.6904C132.14 56.2359 132.278 56.9262 132.278 57.7614V64.0001H130.77V57.8637C130.77 57.0924 130.57 56.4915 130.169 56.0611C129.768 55.6265 129.219 55.4092 128.52 55.4092C128.038 55.4092 127.608 55.5136 127.229 55.7224C126.854 55.9312 126.558 56.2359 126.34 56.6364C126.123 57.037 126.014 57.5228 126.014 58.0938ZM138.998 67.8864C138.269 67.8864 137.643 67.7927 137.119 67.6052C136.595 67.4219 136.158 67.179 135.808 66.8765C135.463 66.5782 135.188 66.2586 134.984 65.9177L136.186 65.0739C136.322 65.2529 136.494 65.4574 136.703 65.6876C136.912 65.9219 137.198 66.1244 137.56 66.2948C137.926 66.4695 138.406 66.5569 138.998 66.5569C139.791 66.5569 140.445 66.3651 140.96 65.9816C141.476 65.5981 141.734 64.9972 141.734 64.179V62.1847H141.606C141.495 62.3637 141.338 62.5853 141.133 62.8495C140.933 63.1094 140.643 63.3417 140.264 63.5462C139.889 63.7465 139.382 63.8467 138.742 63.8467C137.95 63.8467 137.238 63.6592 136.607 63.2842C135.981 62.9092 135.485 62.3637 135.118 61.6478C134.756 60.9319 134.575 60.0626 134.575 59.0398C134.575 58.0342 134.752 57.1584 135.105 56.4127C135.459 55.6627 135.951 55.0832 136.582 54.6741C137.213 54.2607 137.941 54.054 138.768 54.054C139.407 54.054 139.914 54.1606 140.289 54.3736C140.669 54.5824 140.958 54.8211 141.159 55.0895C141.363 55.3538 141.521 55.5711 141.632 55.7415H141.785V54.1819H143.242V64.2813C143.242 65.1251 143.051 65.8111 142.667 66.3395C142.288 66.8722 141.776 67.2621 141.133 67.5093C140.494 67.7607 139.782 67.8864 138.998 67.8864ZM138.947 62.4915C139.552 62.4915 140.063 62.353 140.481 62.0761C140.899 61.7991 141.216 61.4006 141.433 60.8807C141.651 60.3609 141.759 59.7387 141.759 59.0143C141.759 58.3069 141.653 57.6826 141.44 57.1414C141.227 56.6002 140.911 56.1762 140.494 55.8694C140.076 55.5626 139.561 55.4092 138.947 55.4092C138.308 55.4092 137.775 55.5711 137.349 55.8949C136.927 56.2188 136.61 56.6535 136.396 57.1989C136.188 57.7444 136.083 58.3495 136.083 59.0143C136.083 59.6961 136.19 60.2991 136.403 60.8232C136.62 61.3431 136.94 61.7522 137.362 62.0505C137.788 62.3445 138.316 62.4915 138.947 62.4915ZM158.021 56.3807L156.666 56.7643C156.58 56.5384 156.455 56.319 156.289 56.1059C156.127 55.8886 155.905 55.7096 155.624 55.569C155.343 55.4283 154.982 55.358 154.544 55.358C153.943 55.358 153.442 55.4965 153.041 55.7735C152.645 56.0462 152.447 56.3935 152.447 56.8154C152.447 57.1904 152.583 57.4866 152.856 57.7039C153.129 57.9212 153.555 58.1023 154.134 58.2472L155.592 58.6052C156.47 58.8182 157.124 59.1442 157.554 59.5832C157.985 60.0178 158.2 60.5782 158.2 61.2643C158.2 61.8268 158.038 62.3296 157.714 62.7728C157.394 63.216 156.947 63.5654 156.372 63.8211C155.796 64.0768 155.127 64.2046 154.365 64.2046C153.363 64.2046 152.534 63.9873 151.878 63.5526C151.222 63.118 150.806 62.483 150.632 61.6478L152.063 61.2898C152.2 61.8182 152.458 62.2145 152.837 62.4788C153.22 62.743 153.721 62.8751 154.339 62.8751C155.042 62.8751 155.6 62.7259 156.014 62.4276C156.431 62.1251 156.64 61.7628 156.64 61.341C156.64 61.0001 156.521 60.7145 156.282 60.4844C156.044 60.2501 155.677 60.0753 155.183 59.9603L153.546 59.5768C152.647 59.3637 151.987 59.0334 151.565 58.586C151.147 58.1343 150.938 57.5697 150.938 56.8921C150.938 56.3381 151.094 55.8481 151.405 55.4219C151.72 54.9958 152.149 54.6613 152.69 54.4184C153.235 54.1755 153.853 54.054 154.544 54.054C155.515 54.054 156.278 54.2671 156.832 54.6932C157.39 55.1194 157.786 55.6819 158.021 56.3807ZM161.442 67.6819C161.186 67.6819 160.958 67.6606 160.758 67.618C160.558 67.5796 160.419 67.5413 160.343 67.5029L160.726 66.1734C161.093 66.2671 161.417 66.3012 161.698 66.2756C161.979 66.2501 162.228 66.1244 162.446 65.8985C162.667 65.6769 162.87 65.3168 163.053 64.8182L163.334 64.0512L159.703 54.1819H161.34L164.05 62.0057H164.152L166.863 54.1819H168.499L164.331 65.4319C164.144 65.939 163.912 66.3587 163.635 66.6911C163.358 67.0278 163.036 67.277 162.669 67.439C162.307 67.6009 161.898 67.6819 161.442 67.6819ZM177.445 56.3807L176.089 56.7643C176.004 56.5384 175.879 56.319 175.712 56.1059C175.55 55.8886 175.329 55.7096 175.048 55.569C174.766 55.4283 174.406 55.358 173.967 55.358C173.366 55.358 172.866 55.4965 172.465 55.7735C172.069 56.0462 171.871 56.3935 171.871 56.8154C171.871 57.1904 172.007 57.4866 172.28 57.7039C172.553 57.9212 172.979 58.1023 173.558 58.2472L175.016 58.6052C175.893 58.8182 176.548 59.1442 176.978 59.5832C177.408 60.0178 177.624 60.5782 177.624 61.2643C177.624 61.8268 177.462 62.3296 177.138 62.7728C176.818 63.216 176.371 63.5654 175.795 63.8211C175.22 64.0768 174.551 64.2046 173.788 64.2046C172.787 64.2046 171.958 63.9873 171.302 63.5526C170.646 63.118 170.23 62.483 170.055 61.6478L171.487 61.2898C171.624 61.8182 171.881 62.2145 172.261 62.4788C172.644 62.743 173.145 62.8751 173.763 62.8751C174.466 62.8751 175.024 62.7259 175.438 62.4276C175.855 62.1251 176.064 61.7628 176.064 61.341C176.064 61.0001 175.945 60.7145 175.706 60.4844C175.467 60.2501 175.101 60.0753 174.607 59.9603L172.97 59.5768C172.071 59.3637 171.411 59.0334 170.989 58.586C170.571 58.1343 170.362 57.5697 170.362 56.8921C170.362 56.3381 170.518 55.8481 170.829 55.4219C171.144 54.9958 171.572 54.6613 172.114 54.4184C172.659 54.1755 173.277 54.054 173.967 54.054C174.939 54.054 175.702 54.2671 176.256 54.6932C176.814 55.1194 177.21 55.6819 177.445 56.3807ZM184.164 54.1819V55.4603H179.076V54.1819H184.164ZM180.559 51.8296H182.068V61.1876C182.068 61.6137 182.129 61.9333 182.253 62.1464C182.381 62.3552 182.543 62.4958 182.739 62.5682C182.939 62.6364 183.15 62.6705 183.372 62.6705C183.538 62.6705 183.674 62.662 183.781 62.6449C183.887 62.6236 183.972 62.6066 184.036 62.5938L184.343 63.9489C184.241 63.9873 184.098 64.0256 183.915 64.064C183.732 64.1066 183.499 64.1279 183.218 64.1279C182.792 64.1279 182.374 64.0363 181.965 63.853C181.561 63.6698 181.224 63.3907 180.955 63.0157C180.691 62.6407 180.559 62.1677 180.559 61.5967V51.8296ZM190.444 64.2046C189.498 64.2046 188.682 63.9958 187.996 63.5782C187.314 63.1563 186.788 62.5682 186.417 61.814C186.051 61.0555 185.868 60.1734 185.868 59.1677C185.868 58.162 186.051 57.2756 186.417 56.5086C186.788 55.7373 187.304 55.1364 187.964 54.706C188.629 54.2714 189.405 54.054 190.291 54.054C190.802 54.054 191.307 54.1393 191.806 54.3097C192.305 54.4802 192.758 54.7572 193.167 55.1407C193.577 55.5199 193.903 56.0228 194.145 56.6492C194.388 57.2756 194.51 58.0469 194.51 58.9631V59.6023H186.942V58.2984H192.976C192.976 57.7444 192.865 57.2501 192.643 56.8154C192.426 56.3807 192.115 56.0377 191.71 55.7863C191.309 55.5349 190.836 55.4092 190.291 55.4092C189.69 55.4092 189.17 55.5583 188.731 55.8566C188.297 56.1506 187.962 56.5342 187.728 57.0072C187.493 57.4802 187.376 57.9873 187.376 58.5285V59.3978C187.376 60.1393 187.504 60.7678 187.76 61.2834C188.02 61.7948 188.38 62.1847 188.84 62.4532C189.3 62.7174 189.835 62.8495 190.444 62.8495C190.841 62.8495 191.199 62.7941 191.518 62.6833C191.842 62.5682 192.121 62.3978 192.356 62.1719C192.59 61.9418 192.771 61.6563 192.899 61.3154L194.356 61.7245C194.203 62.2188 193.945 62.6535 193.583 63.0285C193.221 63.3992 192.773 63.689 192.241 63.8978C191.708 64.1023 191.109 64.2046 190.444 64.2046ZM196.805 64.0001V54.1819H198.262V55.716H198.39C198.594 55.1918 198.925 54.7849 199.381 54.4951C199.836 54.2011 200.384 54.054 201.023 54.054C201.671 54.054 202.21 54.2011 202.64 54.4951C203.075 54.7849 203.414 55.1918 203.657 55.716H203.759C204.01 55.2089 204.388 54.8062 204.89 54.5079C205.393 54.2053 205.996 54.054 206.699 54.054C207.577 54.054 208.295 54.3289 208.854 54.8786C209.412 55.4241 209.691 56.2742 209.691 57.429V64.0001H208.182V57.429C208.182 56.7046 207.984 56.1869 207.588 55.8758C207.192 55.5647 206.725 55.4092 206.188 55.4092C205.498 55.4092 204.963 55.618 204.584 56.0356C204.204 56.4489 204.015 56.9731 204.015 57.608V64.0001H202.481V57.2756C202.481 56.7174 202.3 56.2678 201.937 55.9269C201.575 55.5817 201.108 55.4092 200.537 55.4092C200.145 55.4092 199.779 55.5136 199.438 55.7224C199.101 55.9312 198.829 56.2209 198.62 56.5917C198.415 56.9582 198.313 57.3822 198.313 57.8637V64.0001H196.805Z" fill="#2D2D2D"/>
</svg>
